<?xml version="1.0" encoding="UTF-8" standalone="no"?>
<svg
   xmlns:dc="http://purl.org/dc/elements/1.1/"
   xmlns:cc="http://creativecommons.org/ns#"
   xmlns:rdf="http://www.w3.org/1999/02/22-rdf-syntax-ns#"
   xmlns:svg="http://www.w3.org/2000/svg"
   xmlns="http://www.w3.org/2000/svg"
   xmlns:sodipodi="http://sodipodi.sourceforge.net/DTD/sodipodi-0.dtd"
   xmlns:inkscape="http://www.inkscape.org/namespaces/inkscape"
   sodipodi:docname="CSS3_logo_and_wordmark.svg"
   inkscape:version="1.0beta2 (2b71d25, 2019-12-03)"
   version="1.1"
   id="svg3476"
   viewBox="0 0 132.83716 187.5"
   height="52.916668mm"
   width="37.489597mm">
  <defs
     id="defs3478" />
  <sodipodi:namedview
     inkscape:document-rotation="0"
     inkscape:window-maximized="1"
     inkscape:window-y="23"
     inkscape:window-x="0"
     inkscape:window-height="798"
     inkscape:window-width="1440"
     fit-margin-bottom="0"
     fit-margin-right="0"
     fit-margin-left="0"
     fit-margin-top="0"
     showgrid="false"
     inkscape:current-layer="layer1"
     inkscape:document-units="px"
     inkscape:cy="256"
     inkscape:cx="181.36699"
     inkscape:zoom="0.35"
     inkscape:pageshadow="2"
     inkscape:pageopacity="0.0"
     borderopacity="1.0"
     bordercolor="#666666"
     pagecolor="#ffffff"
     id="base" />
  <metadata
     id="metadata3481">
    <rdf:RDF>
      <cc:Work
         rdf:about="">
        <dc:format>image/svg+xml</dc:format>
        <dc:type
           rdf:resource="http://purl.org/dc/dcmitype/StillImage" />
        <dc:title></dc:title>
      </cc:Work>
    </rdf:RDF>
  </metadata>
  <g
     transform="translate(-193.633,-276.3622)"
     id="layer1"
     inkscape:groupmode="layer"
     inkscape:label="Calque 1">
    <g
       transform="matrix(0.36621095,0,0,0.36621095,122.72248,175.15534)"
       id="g2421">
      <g
         id="g3013"
         transform="translate(119,276.3622)">
        <polygon
           id="polygon2989"
           points="107.644,470.877 74.633,100.62 437.367,100.62 404.321,470.819 255.778,512 "
           style="fill:#264de4" />
        <polygon
           id="polygon2991"
           points="256,480.523 376.03,447.246 404.27,130.894 256,130.894 "
           style="fill:#2965f1" />
        <polygon
           id="polygon2993"
           points="256,268.217 150.31,268.217 154.38,313.627 256,313.627 "
           style="fill:#ebebeb" />
        <polygon
           id="polygon2995"
           points="146.26,221.716 256,221.716 256,176.305 255.843,176.305 142.132,176.305 "
           style="fill:#ebebeb" />
        <polygon
           id="polygon2997"
           points="205.227,372.55 201.994,336.333 177.419,336.333 156.409,336.333 162.771,407.634 255.791,433.457 256,433.399 256,386.153 255.801,386.206 "
           style="fill:#ebebeb" />
        <path
           id="path2999"
           d="m 160,0 h 55 v 23 h -32 v 23 h 32 v 23 h -55 z"
           inkscape:connector-curvature="0" />
        <path
           id="path3001"
           d="m 226,0 h 55 v 20 h -32 v 4 h 32 V 70 H 226 V 49 h 32 v -4 h -32 z"
           inkscape:connector-curvature="0" />
        <path
           id="path3003"
           d="m 292,0 h 55 v 20 h -32 v 4 h 32 V 70 H 292 V 49 h 32 v -4 h -32 z"
           inkscape:connector-curvature="0" />
        <polygon
           id="polygon3005"
           points="255.843,433.435 348.937,407.634 349.62,399.962 360.291,280.411 361.399,268.217 369.597,176.305 255.843,176.305 255.843,221.716 319.831,221.716 315.699,268.217 255.843,268.217 255.843,313.627 311.761,313.627 306.49,372.521 255.843,386.191 "
           style="fill:#ffffff" />
      </g>
    </g>
  </g>
</svg>
