<?xml version="1.0" encoding="UTF-8" standalone="no"?>
<svg
   xmlns:dc="http://purl.org/dc/elements/1.1/"
   xmlns:cc="http://creativecommons.org/ns#"
   xmlns:rdf="http://www.w3.org/1999/02/22-rdf-syntax-ns#"
   xmlns:svg="http://www.w3.org/2000/svg"
   xmlns="http://www.w3.org/2000/svg"
   xmlns:sodipodi="http://sodipodi.sourceforge.net/DTD/sodipodi-0.dtd"
   xmlns:inkscape="http://www.inkscape.org/namespaces/inkscape"
   inkscape:version="1.0beta2 (2b71d25, 2019-12-03)"
   height="200"
   width="200"
   sodipodi:docname="Unofficial_JavaScript_logo_2.svg"
   id="svg2400"
   version="1.1"
   viewBox="0 0 200 200">
  <metadata
     id="metadata2406">
    <rdf:RDF>
      <cc:Work
         rdf:about="">
        <dc:format>image/svg+xml</dc:format>
        <dc:type
           rdf:resource="http://purl.org/dc/dcmitype/StillImage" />
        <dc:title></dc:title>
      </cc:Work>
    </rdf:RDF>
  </metadata>
  <defs
     id="defs2404" />
  <sodipodi:namedview
     inkscape:current-layer="svg2400"
     inkscape:window-maximized="0"
     inkscape:window-y="0"
     inkscape:window-x="0"
     inkscape:cy="315"
     inkscape:cx="315"
     inkscape:zoom="0.86984127"
     fit-margin-bottom="0"
     fit-margin-right="0"
     fit-margin-left="0"
     fit-margin-top="0"
     showgrid="false"
     id="namedview2402"
     inkscape:window-height="900"
     inkscape:window-width="1440"
     inkscape:pageshadow="2"
     inkscape:pageopacity="0"
     guidetolerance="10"
     gridtolerance="10"
     objecttolerance="10"
     borderopacity="1"
     inkscape:document-rotation="0"
     bordercolor="#666666"
     pagecolor="#ffffff" />
  <rect
     style="stroke-width:0.31746"
     y="0"
     x="0"
     id="rect2396"
     fill="#f7df1e"
     height="200"
     width="200" />
  <path
     style="stroke-width:0.31746"
     inkscape:connector-curvature="0"
     id="path2398"
     d="m 134.34921,156.25079 c 4.02857,6.57778 9.26984,11.4127 18.53968,11.4127 7.7873,0 12.7619,-3.89206 12.7619,-9.26984 0,-6.44444 -5.11111,-8.72698 -13.68254,-12.47619 l -4.69841,-2.01587 c -13.5619,-5.77778 -22.57143,-13.01588 -22.57143,-28.31746 0,-14.09524 10.73969,-24.8254 27.52381,-24.8254 11.94921,0 20.53968,4.15873 26.73016,15.04762 l -14.63492,9.39682 c -3.22222,-5.77777 -6.69841,-8.05396 -12.09524,-8.05396 -5.50476,0 -8.99365,3.49206 -8.99365,8.05396 0,5.6381 3.49206,7.92064 11.55556,11.4127 l 4.69841,2.0127 c 15.96825,6.84762 24.98413,13.82857 24.98413,29.52381 0,16.92064 -13.29207,26.19048 -31.14286,26.19048 -17.45397,0 -28.73016,-8.31746 -34.24762,-19.21905 z m -66.39048,1.62858 c 2.952381,5.23809 5.638095,9.66666 12.095238,9.66666 6.174603,0 10.069842,-2.41587 10.069842,-11.80952 V 91.831746 h 18.79365 v 64.158734 c 0,19.46031 -11.409523,28.31746 -28.063492,28.31746 -15.047619,0 -23.761905,-7.78731 -28.193651,-17.16667 z" />
</svg>
